# xmcd CD database file
#
# Track frame offsets:
#	182
#	24482
#	50367
#	80020
#	98587
#	112180
#	136477
#	160850
#	178007
#
# Disc length: 2704 seconds
#
# Revision: 0
# Processed by: cddbd v1.5.2PL0 Copyright (c) Steve Scherf et al.
# Submitted via: CDex 1.51
#
DISCID=710a8e09
DTITLE=Lol Coxhill - Halim
DYEAR=1993
DGENRE=New Age
TTITLE0=That old black magic
TTITLE1=Halim
TTITLE2=On with show
TTITLE3=Updown Sidney
TTITLE4=Tremble
TTITLE5=I can't get started
TTITLE6=All clear
TTITLE7=That's it
TTITLE8=King Edward's mambo
EXTD=YEAR: 1993
EXTT0=
EXTT1=
EXTT2=
EXTT3=
EXTT4=
EXTT5=
EXTT6=
EXTT7=
EXTT8=
PLAYORDER=
